<?xml version="1.0" encoding="utf-8"?>
<!-- Generator: Adobe Illustrator 18.0.0, SVG Export Plug-In . SVG Version: 6.00 Build 0)  -->
<!DOCTYPE svg PUBLIC "-//W3C//DTD SVG 1.1//EN" "http://www.w3.org/Graphics/SVG/1.1/DTD/svg11.dtd">
<svg version="1.1" id="Layer_1" xmlns="http://www.w3.org/2000/svg" xmlns:xlink="http://www.w3.org/1999/xlink" x="0px" y="0px"
	 viewBox="0 0 100 100" enable-background="new 0 0 100 100" xml:space="preserve">
<path fill="none" stroke="#FFFFFF" stroke-width="2" stroke-linecap="round" stroke-linejoin="round" stroke-miterlimit="10" d="
	M60.4,77.3L60.4,77.3V56h7.1l1-8.4h-8.1v-5.2c0-2.4,0.8-3.9,4.2-3.9H69v-7.6c-0.8,0-3.4-0.3-6.3-0.3c-6.3,0-10.8,3.9-10.8,11v6h-7.1
	V56H52v21.3H25.7c-1.6,0-3.1-1.3-3.1-3.1V25.3c0-1.6,1.3-3.1,3.1-3.1h48.8c1.6,0,3.1,1.3,3.1,3.1v48.8c0,1.6-1.3,3.1-3.1,3.1l0,0
	L60.4,77.3L60.4,77.3z"/>
</svg>
