<?xml version="1.0" encoding="utf-8"?>
<!-- Generator: Adobe Illustrator 18.0.0, SVG Export Plug-In . SVG Version: 6.00 Build 0)  -->
<!DOCTYPE svg PUBLIC "-//W3C//DTD SVG 1.1//EN" "http://www.w3.org/Graphics/SVG/1.1/DTD/svg11.dtd">
<svg version="1.1" id="Layer_1" xmlns="http://www.w3.org/2000/svg" xmlns:xlink="http://www.w3.org/1999/xlink" x="0px" y="0px"
	 viewBox="0 0 100 100" enable-background="new 0 0 100 100" xml:space="preserve">
<g>
	<path fill="none" stroke="#FFFFFF" stroke-linecap="round" stroke-linejoin="round" stroke-miterlimit="10" d="M42.8,37.1
		c1,0,2.1,0,3.1,0.3s1.8,0.5,2.4,1c0.8,0.5,1.3,1,1.6,1.8s0.5,1.8,0.5,2.9c0,1.3-0.3,2.4-0.8,3.1c-0.5,0.8-1.3,1.6-2.4,2.1
		c1.6,0.5,2.6,1,3.4,2.4c0.8,1,1,2.4,1,3.9c0,1.3-0.3,2.4-0.8,3.1c-0.5,0.8-1,1.6-1.8,2.1s-1.8,1-2.6,1.3c-1,0.3-2.1,0.5-3.1,0.5
		H31.5V37.1H42.8z M42.3,47.1c1,0,1.8-0.3,2.4-0.8c0.5-0.5,0.8-1.3,0.8-2.1c0-0.5,0-1-0.3-1.3c-0.3-0.5-0.5-0.8-0.8-1
		c-0.3-0.3-0.8-0.3-1-0.5c-0.5,0-0.8,0-1.3,0h-5.2v5.8h5.4V47.1z M42.5,57.3c0.5,0,1,0,1.6-0.3c0.5,0,0.8-0.3,1.3-0.5
		c0.3-0.3,0.5-0.5,0.8-1s0.3-1,0.3-1.6c0-1.3-0.3-2.1-1-2.6c-0.8-0.5-1.6-0.8-2.9-0.8h-5.8v6.6h5.8L42.5,57.3L42.5,57.3z"/>
	<path fill="none" stroke="#FFFFFF" stroke-linecap="round" stroke-linejoin="round" stroke-miterlimit="10" d="M58.5,57.1
		c0.8,0.8,1.8,1,3.1,1c1,0,1.8-0.3,2.6-0.8c0.8-0.5,1-1,1.3-1.6h4.2c-0.8,2.1-1.8,3.7-3.1,4.5c-1.3,0.8-3.1,1.3-5,1.3
		c-1.3,0-2.6-0.3-3.7-0.8c-1-0.5-2.1-1-2.9-1.8c-0.8-0.8-1.3-1.8-1.8-2.9c-0.5-1-0.5-2.4-0.5-3.7s0.3-2.6,0.5-3.7
		c0.5-1,1-2.1,1.8-2.9c0.8-0.5,1.6-1.3,2.6-1.6c1-0.5,2.4-0.8,3.7-0.8c1.6,0,2.9,0.3,3.9,0.8s2.1,1.3,2.6,2.4c0.8,1,1.3,2.1,1.6,3.4
		c0.3,1.3,0.5,2.6,0.3,3.9H57.2C57.5,55.2,57.7,56.6,58.5,57.1z M64,47.9c-0.5-0.5-1.6-1-2.6-1c-0.8,0-1.3,0-1.8,0.3s-0.8,0.5-1.3,1
		s-0.5,0.8-0.5,1.3s-0.3,0.8-0.3,1h7.9C64.8,49.5,64.6,48.7,64,47.9z"/>
</g>
<rect x="56.2" y="38.7" fill="none" stroke="#FFFFFF" stroke-linecap="round" stroke-linejoin="round" stroke-miterlimit="10" width="10.5" height="2.6"/>
<path fill="none" stroke="#FFFFFF" stroke-width="2" stroke-linecap="round" stroke-linejoin="round" stroke-miterlimit="10" d="
	M72.7,77.6H27.3c-2.9,0-5.2-2.4-5.2-5.2V27.2c0-2.9,2.4-5.2,5.2-5.2h45.4c2.9,0,5.2,2.4,5.2,5.2v45.1C78,75.2,75.6,77.6,72.7,77.6z"
	/>
</svg>
