<?xml version="1.0" encoding="utf-8"?>
<!-- Generator: Adobe Illustrator 18.0.0, SVG Export Plug-In . SVG Version: 6.00 Build 0)  -->
<!DOCTYPE svg PUBLIC "-//W3C//DTD SVG 1.1//EN" "http://www.w3.org/Graphics/SVG/1.1/DTD/svg11.dtd">
<svg version="1.1" id="Layer_1" xmlns="http://www.w3.org/2000/svg" xmlns:xlink="http://www.w3.org/1999/xlink" x="0px" y="0px"
	 viewBox="0 0 100 100" enable-background="new 0 0 100 100" xml:space="preserve">
<path fill="none" stroke="#FFFFFF" stroke-width="2" stroke-linecap="round" stroke-linejoin="round" stroke-miterlimit="10" d="
	M50.1,22.7C34.6,22.7,22,35.3,22,50.8c0,12.3,8.1,23.1,19.2,26.8c1.3,0.3,1.8-0.5,1.8-1.3s0-2.4,0-4.7c-7.9,1.6-9.4-3.7-9.4-3.7
	c-1.3-3.1-3.1-4.2-3.1-4.2c-2.6-1.8,0.3-1.8,0.3-1.8c2.9,0.3,4.2,2.9,4.2,2.9c2.6,4.2,6.6,3.1,8.1,2.4c0.3-1.8,1-3.1,1.8-3.7
	c-6.3-0.9-12.9-3.3-12.9-14c0-3.1,1-5.5,2.9-7.6c-0.3-0.8-1.3-3.7,0.3-7.3c0,0,2.4-0.8,7.9,2.9c2.4-0.5,4.7-1,7.1-1
	c2.4,0,4.7,0.3,7.1,1c5.2-3.7,7.6-2.9,7.6-2.9c1.6,3.9,0.5,6.8,0.3,7.3c1.8,2.1,2.9,4.5,2.9,7.6c0,10.8-6.6,13.1-12.9,13.9
	c1,0.8,1.8,2.6,1.8,5.2c0,3.7,0,6.8,0,7.6s0.5,1.6,1.8,1.3C70.1,73.9,78,63.4,78,50.8C78.2,35.3,65.6,22.7,50.1,22.7L50.1,22.7z"/>
</svg>
