<?xml version="1.0" encoding="utf-8"?>
<!-- Generator: Adobe Illustrator 18.0.0, SVG Export Plug-In . SVG Version: 6.00 Build 0)  -->
<!DOCTYPE svg PUBLIC "-//W3C//DTD SVG 1.1//EN" "http://www.w3.org/Graphics/SVG/1.1/DTD/svg11.dtd">
<svg version="1.1" id="Layer_1" xmlns="http://www.w3.org/2000/svg" xmlns:xlink="http://www.w3.org/1999/xlink" x="0px" y="0px"
	 viewBox="0 0 100 100" enable-background="new 0 0 100 100" xml:space="preserve">
<g>
	<path fill="none" stroke="#FFFFFF" stroke-width="2" stroke-linecap="round" stroke-linejoin="round" stroke-miterlimit="10" d="
		M73.8,22.4H26.5c-2.4,0-4.2,1.8-4.2,3.9v47.5c0,2.1,1.8,3.9,4.2,3.9h47.2c2.4,0,4.2-1.8,4.2-3.9V26.4C78,24.3,75.9,22.4,73.8,22.4
		L73.8,22.4z"/>
	<path fill="none" stroke="#FFFFFF" stroke-width="2" stroke-linecap="round" stroke-linejoin="round" stroke-miterlimit="10" d="
		M34.6,30.1c2.6,0,4.7,2.1,4.7,4.7s-2.1,4.7-4.7,4.7s-4.7-2.1-4.7-4.7S32,30.1,34.6,30.1 M30.4,43.2h8.1v26.5h-8.1V43.2L30.4,43.2z"
		/>
	<path fill="none" stroke="#FFFFFF" stroke-width="2" stroke-linecap="round" stroke-linejoin="round" stroke-miterlimit="10" d="
		M43.8,43.2h7.9v3.7l0,0c1-2.1,3.7-4.2,7.9-4.2c8.4,0,10,5.5,10,12.6v14.4h-8.1V56.8c0-3.1,0-7.1-4.2-7.1s-5,3.4-5,6.8v13.1h-8.1
		V43.2H43.8z"/>
</g>
</svg>
