<?xml version="1.0" encoding="utf-8"?>
<!-- Generator: Adobe Illustrator 18.0.0, SVG Export Plug-In . SVG Version: 6.00 Build 0)  -->
<!DOCTYPE svg PUBLIC "-//W3C//DTD SVG 1.1//EN" "http://www.w3.org/Graphics/SVG/1.1/DTD/svg11.dtd">
<svg version="1.1" id="Layer_1" xmlns="http://www.w3.org/2000/svg" xmlns:xlink="http://www.w3.org/1999/xlink" x="0px" y="0px"
	 viewBox="0 0 100 100" enable-background="new 0 0 100 100" xml:space="preserve">
<g>
	<path fill="none" stroke="#FFFFFF" stroke-width="2" stroke-linecap="round" stroke-linejoin="round" stroke-miterlimit="10" d="
		M58.5,59.2c-0.5,0.3-1.8,0.5-2.6,0.5c-2.6,0-3.1-1.8-3.1-3.4V45.8h6.8v-5.2h-6.8v-8.4h-5c0,0-0.3,0-0.3,0.3
		c-0.3,2.6-1.6,7.3-6.6,9.2v4.5h3.4v11c0,3.7,2.9,9.2,10.2,8.9c2.4,0,5.2-1,5.8-2.1L58.5,59.2L58.5,59.2z"/>
	<path fill="none" stroke="#FFFFFF" stroke-width="2" stroke-linecap="round" stroke-linejoin="round" stroke-miterlimit="10" d="
		M70.9,77.3H29.4c-3.4,0-6.3-2.9-6.3-6.3V29.3c0-3.4,2.9-6.3,6.3-6.3h41.5c3.4,0,6.3,2.9,6.3,6.3v41.5
		C77.2,74.4,74.3,77.3,70.9,77.3z"/>
</g>
</svg>
