<?xml version="1.0" encoding="utf-8"?>
<!-- Generator: Adobe Illustrator 18.0.0, SVG Export Plug-In . SVG Version: 6.00 Build 0)  -->
<!DOCTYPE svg PUBLIC "-//W3C//DTD SVG 1.1//EN" "http://www.w3.org/Graphics/SVG/1.1/DTD/svg11.dtd">
<svg version="1.1" id="Layer_1" xmlns="http://www.w3.org/2000/svg" xmlns:xlink="http://www.w3.org/1999/xlink" x="0px" y="0px"
	 viewBox="0 0 100 100" enable-background="new 0 0 100 100" xml:space="preserve">
<g>
	<path fill="none" stroke="#FFFFFF" stroke-width="2" stroke-linecap="round" stroke-linejoin="round" stroke-miterlimit="10" d="
		M46.4,77.6c-7.9,0-15.2-2.4-21.3-6.3c1,0,2.1,0.3,3.4,0.3c6.6,0,12.6-2.1,17.3-6c-6,0-11.3-4.2-12.9-9.7c0.8,0.3,1.8,0.3,2.6,0.3
		c1.3,0,2.6-0.3,3.7-0.5c-6.6-1-11.3-6.8-11.3-13.6c0,0,0,0,0-0.3c1.8,1,3.9,1.6,6.3,1.8c-3.9-2.4-6.3-6.6-6.3-11.5
		c0-2.6,0.8-5,1.8-7.1c6.8,8.4,17.1,13.9,28.6,14.4c-0.3-1-0.3-2.1-0.3-3.1c0-7.6,6.3-13.9,13.9-13.9c3.9,0,7.6,1.6,10.2,4.5
		c3.1-0.5,6-1.6,8.7-3.1c-1,3.1-3.1,6-6,7.6c2.9-0.3,5.5-1,7.9-2.1c-1.8,2.9-4.2,5.2-6.8,7.1c0,0.5,0,1.3,0,1.8
		C86,56.3,72.1,77.6,46.4,77.6"/>
</g>
</svg>
